HIERARCHY
ROOT hip
{
	OFFSET 0.000000 0.000000 0.000000
	CHANNELS 6 Xposition Yposition Zposition Zrotation Yrotation Xrotation 
	JOINT lhipjoint
	{
		OFFSET 0.000000 0.000000 0.000000
		CHANNELS 3 Zrotation Yrotation Xrotation
		JOINT lfemur
		{
			OFFSET 1.363060 -1.794630 0.839290
			CHANNELS 3 Zrotation Yrotation Xrotation
			JOINT ltibia
			{
				OFFSET 2.448110 -6.726130 0.000000
				CHANNELS 3 Zrotation Yrotation Xrotation
				JOINT lfoot
				{
					OFFSET 2.562200 -7.039590 0.000000
					CHANNELS 3 Zrotation Yrotation Xrotation
					JOINT ltoes
					{
						OFFSET 0.157640 -0.433110 2.322550
						CHANNELS 3 Zrotation Yrotation Xrotation
						End Site
						{
							OFFSET 0.000000 0.000000 0.000000
						}
					}
				}
			}
		}
	}
	JOINT rhipjoint
	{
		OFFSET 0.000000 0.000000 0.000000
		CHANNELS 3 Zrotation Yrotation Xrotation
		JOINT rfemur
		{
			OFFSET -1.305520 -1.794630 0.839290
			CHANNELS 3 Zrotation Yrotation Xrotation
			JOINT rtibia
			{
				OFFSET -2.542530 -6.985550 0.000000
				CHANNELS 3 Zrotation Yrotation Xrotation
				JOINT rfoot
				{
					OFFSET -2.568260 -7.056230 0.000000
					CHANNELS 3 Zrotation Yrotation Xrotation
					JOINT rtoes
					{
						OFFSET -0.164730 -0.452590 2.363150
						CHANNELS 3 Zrotation Yrotation Xrotation
						End Site
						{
							OFFSET 0.000000 0.000000 0.000000
						}
					}
				}
			}
		}
	}
	JOINT lowerback
	{
		OFFSET 0.000000 0.000000 0.000000
		CHANNELS 3 Zrotation Yrotation Xrotation
		JOINT upperback
		{
			OFFSET 0.028270 2.035590 -0.193380
			CHANNELS 3 Zrotation Yrotation Xrotation
			JOINT thorax
			{
				OFFSET 0.056720 2.048850 -0.042750
				CHANNELS 3 Zrotation Yrotation Xrotation
				JOINT lowerneck
				{
					OFFSET 0.000000 0.000000 0.000000
					CHANNELS 3 Zrotation Yrotation Xrotation
					JOINT upperneck
					{
						OFFSET -0.054170 1.746240 0.172020
						CHANNELS 3 Zrotation Yrotation Xrotation
						JOINT head
						{
							OFFSET 0.104070 1.761360 -0.123970
							CHANNELS 3 Zrotation Yrotation Xrotation
							End Site
							{
								OFFSET 0.000000 0.000000 0.000000
							}
						}
					}
				}
				JOINT lclavicle
				{
					OFFSET 0.000000 0.000000 0.000000
					CHANNELS 3 Zrotation Yrotation Xrotation
					JOINT lhumerus
					{
						OFFSET 3.362410 1.200890 -0.311210
						CHANNELS 3 Zrotation Yrotation Xrotation
						JOINT lradius
						{
							OFFSET 4.983000 -0.000000 -0.000000
							CHANNELS 3 Zrotation Yrotation Xrotation
							JOINT lwrist
							{
								OFFSET 3.483560 -0.000000 -0.000000
								CHANNELS 3 Zrotation Yrotation Xrotation
								JOINT lhand
								{
									OFFSET 0.000000 0.000000 0.000000
									CHANNELS 3 Zrotation Yrotation Xrotation
									JOINT lfingers
									{
										OFFSET 0.715260 -0.000000 -0.000000
										CHANNELS 3 Zrotation Yrotation Xrotation
										End Site
										{
											OFFSET 0.000000 0.000000 0.000000
										}
									}
								}
								JOINT lthumb
								{
									OFFSET 0.000000 0.000000 0.000000
									CHANNELS 3 Zrotation Yrotation Xrotation
									End Site
									{
										OFFSET 0.000000 0.000000 0.000000
									}
								}
							}
						}
					}
				}
				JOINT rclavicle
				{
					OFFSET 0.000000 0.000000 0.000000
					CHANNELS 3 Zrotation Yrotation Xrotation
					JOINT rhumerus
					{
						OFFSET -3.136600 1.374050 -0.404650
						CHANNELS 3 Zrotation Yrotation Xrotation
						JOINT rradius
						{
							OFFSET -5.241900 -0.000000 -0.000000
							CHANNELS 3 Zrotation Yrotation Xrotation
							JOINT rwrist
							{
								OFFSET -3.444170 -0.000000 -0.000000
								CHANNELS 3 Zrotation Yrotation Xrotation
								JOINT rhand
								{
									OFFSET 0.000000 0.000000 0.000000
									CHANNELS 3 Zrotation Yrotation Xrotation
									JOINT rfingers
									{
										OFFSET -0.622530 -0.000000 -0.000000
										CHANNELS 3 Zrotation Yrotation Xrotation
										End Site
										{
											OFFSET 0.000000 0.000000 0.000000
										}
									}
								}
								JOINT rthumb
								{
									OFFSET 0.000000 0.000000 0.000000
									CHANNELS 3 Zrotation Yrotation Xrotation
									End Site
									{
										OFFSET 0.000000 0.000000 0.000000
									}
								}
							}
						}
					}
				}
			}
		}
	}
}
MOTION
Frames: 12
Frame Time: 0.008333
0.353058 16.299888 13.180477 12.417415 36.159091 15.320045 9.064230 1.079593 -0.998350 -24.932467 -32.370891 -38.950994 4.423521 16.884991 45.432608 5.142070 -11.650626 15.354775 0.476700 -4.427900 -12.283800 -10.222045 -4.508024 1.481571 11.882761 9.206596 -46.595731 -11.609228 -20.273792 65.535315 2.073362 -11.451772 -16.473397 -0.314600 3.605500 -9.969400 15.522401 -4.698089 65.545051 -0.681437 1.699083 -0.578181 -14.998978 4.040727 -9.589278 -5.134112 -13.181661 17.239008 -3.919796 -14.057647 10.661589 1.824800 -6.210900 -3.583900 -5.942649 -3.214746 5.533789 -73.295435 8.008597 35.058662 27.785389 -47.311487 -9.720976 -0.122998 2.080075 3.893501 10.695812 -6.399378 -1.640500 -7.125000 0.000000 0.000000 -11.458000 21.395100 6.619400 5.246833 8.433903 3.272596 2.237275 30.559293 -66.536744 4.881355 4.294863 0.011460 0.593618 -0.430188 39.621431 -32.717702 7.757885 -5.016400 7.125000 0.000000 0.000000 -4.783300 -20.866500 -2.775300 
0.350869 16.301381 13.181970 12.372445 36.161486 15.293873 9.063130 1.078352 -0.992393 -24.858591 -32.435103 -38.942131 4.422892 16.881743 45.419020 5.130028 -11.583631 15.345884 0.474300 -4.416800 -12.252400 -10.227667 -4.511149 1.482617 11.957132 9.174921 -46.590220 -11.599747 -20.267529 65.499843 2.076276 -11.455128 -16.432662 -0.317800 3.624000 -10.021200 15.520713 -4.704391 65.620236 -0.683184 1.695186 -0.587672 -15.041948 4.030742 -9.657116 -5.091638 -13.163081 17.306500 -3.920839 -14.019988 10.669407 1.808700 -6.187900 -3.605400 -5.946860 -3.229210 5.531545 -73.280740 7.966287 35.120665 27.776968 -47.289657 -9.705670 -0.122133 2.075349 3.958564 10.634212 -6.397701 -1.629800 -7.125000 0.000000 0.000000 -11.501600 21.404300 6.643200 5.252116 8.460448 3.282979 2.247674 30.462471 -66.483634 4.841714 4.319709 0.002032 0.594996 -0.435319 39.040084 -32.469474 7.726057 -4.958300 7.125000 0.000000 0.000000 -4.610700 -20.912700 -2.669700 
0.348978 16.304267 13.183661 12.320918 36.150260 15.267388 9.062856 1.076385 -0.988022 -24.796699 -32.474001 -38.920135 4.420925 16.875453 45.396522 5.116553 -11.510326 15.321099 0.479900 -4.442300 -12.324400 -10.234860 -4.514973 1.482239 12.036412 9.146183 -46.568648 -11.584472 -20.258217 65.444960 2.074473 -11.442694 -16.373451 -0.315300 3.609800 -9.981500 15.522706 -4.696296 65.675770 -0.686649 1.701091 -0.595306 -15.107466 4.029474 -9.707309 -5.023232 -13.155205 17.346717 -3.930390 -13.990813 10.687057 1.781800 -6.169900 -3.618700 -5.955421 -3.237121 5.526836 -73.234669 7.906266 35.217369 27.792977 -47.284104 -9.703649 -0.122165 2.071364 3.944663 10.599857 -6.392736 -1.622700 -7.125000 0.000000 0.000000 -11.527400 21.414600 6.656000 5.262507 8.483283 3.297141 2.308470 30.317768 -66.373967 4.793515 4.354523 -0.012063 0.590811 -0.445914 38.509572 -32.097035 7.755054 -4.921100 7.125000 0.000000 0.000000 -4.341300 -20.889500 -2.515100 
0.346789 16.307053 13.184955 12.246166 36.145564 15.240458 9.062474 1.075437 -0.983936 -24.690759 -32.522089 -38.923609 4.415844 16.868238 45.368664 5.106956 -11.453845 15.324050 0.476200 -4.425500 -12.276900 -10.244341 -4.519322 1.483412 12.140100 9.137665 -46.558260 -11.566298 -20.248412 65.380627 2.073117 -11.434362 -16.341402 -0.317200 3.620600 -10.011500 15.521939 -4.688078 65.695594 -0.689427 1.703097 -0.603976 -15.146980 4.027474 -9.747487 -4.994873 -13.116234 17.333659 -3.942099 -13.935464 10.724700 1.757600 -6.145900 -3.595600 -5.966214 -3.251693 5.518716 -73.217163 7.833142 35.264188 27.812951 -47.279258 -9.704870 -0.123001 2.069699 3.905093 10.566223 -6.381449 -1.615000 -7.125000 0.000000 0.000000 -11.552800 21.428800 6.667400 5.262165 8.500430 3.303015 2.390990 30.199113 -66.223244 4.760205 4.375388 -0.026219 0.583401 -0.456374 38.080278 -31.722873 7.752590 -4.863600 7.125000 0.000000 0.000000 -4.071500 -20.902200 -2.356800 
0.345197 16.311133 13.186249 12.163397 36.141925 15.202469 9.062617 1.074416 -0.979904 -24.587655 -32.564031 -38.912394 4.409243 16.858761 45.334068 5.097720 -11.399606 15.323170 0.476700 -4.427700 -12.283200 -10.254935 -4.523282 1.481354 12.251747 9.117181 -46.527946 -11.542875 -20.234941 65.297829 2.062540 -11.396326 -16.287015 -0.313800 3.601400 -9.957700 15.514847 -4.679089 65.698395 -0.691631 1.701387 -0.612434 -15.169647 4.026182 -9.771610 -4.984986 -13.062339 17.271811 -3.955972 -13.871152 10.766899 1.732400 -6.120800 -3.552600 -5.978087 -3.267070 5.506828 -73.201635 7.737243 35.300994 27.832599 -47.273616 -9.706166 -0.124481 2.068469 3.833931 10.525349 -6.365647 -1.605400 -7.125000 0.000000 0.000000 -11.584000 21.447300 6.681200 5.257290 8.510762 3.308166 2.507030 30.069415 -66.015630 4.721156 4.412240 -0.042891 0.569994 -0.470780 37.756791 -31.373005 7.822701 -4.858800 7.125000 0.000000 0.000000 -3.810100 -20.820900 -2.211800 
0.343704 16.315810 13.187542 12.063406 36.123307 15.155033 9.063188 1.074155 -0.977880 -24.483508 -32.574253 -38.906515 4.402296 16.847756 45.294393 5.086308 -11.334797 15.310174 0.479000 -4.438500 -12.313700 -10.266774 -4.527749 1.480098 12.376745 9.110433 -46.502334 -11.514864 -20.219839 65.199955 2.064308 -11.395205 -16.233771 -0.314800 3.606600 -9.972500 15.493746 -4.651133 65.678385 -0.694689 1.708367 -0.619817 -15.179075 4.032936 -9.773033 -4.984103 -12.985607 17.147205 -3.965041 -13.786330 10.829582 1.706500 -6.092600 -3.476500 -5.991703 -3.282569 5.491495 -73.199791 7.624103 35.311708 27.865457 -47.275639 -9.713290 -0.129597 2.067342 3.757572 10.450572 -6.304817 -1.582700 -7.125000 0.000000 0.000000 -11.639600 21.511900 6.697100 5.245972 8.510823 3.307380 2.652559 29.953215 -65.777428 4.692161 4.438571 -0.059414 0.552695 -0.486696 37.493517 -31.119472 7.950884 -4.907400 7.125000 0.000000 0.000000 -3.611000 -20.660400 -2.108900 
0.342510 16.320089 13.188736 11.972741 36.100898 15.085658 9.065491 1.072574 -0.975376 -24.399120 -32.591373 -38.857972 4.393103 16.833800 45.247072 5.076167 -11.276593 15.299652 0.483100 -4.456900 -12.365700 -10.281115 -4.530870 1.472533 12.504047 9.086661 -46.431478 -11.483651 -20.200493 65.089361 2.054058 -11.358458 -16.175688 -0.310300 3.581400 -9.901900 15.453435 -4.619260 65.661194 -0.697418 1.710484 -0.627022 -15.164579 4.042733 -9.749776 -5.001474 -12.888177 16.943559 -3.989007 -13.686503 10.918040 1.668100 -6.062500 -3.359800 -6.005761 -3.300180 5.469864 -73.198906 7.490612 35.344578 27.898929 -47.280306 -9.722475 -0.136299 2.071198 3.621756 10.442368 -6.217620 -1.566200 -7.125000 0.000000 0.000000 -11.649100 21.594800 6.680400 5.227652 8.499723 3.301763 2.836890 29.841348 -65.480909 4.648721 4.488606 -0.079553 0.529601 -0.505668 37.347245 -31.013816 8.074468 -4.982700 7.125000 0.000000 0.000000 -3.516100 -20.486100 -2.067000 
0.341515 16.325462 13.190428 11.851963 36.091151 14.972253 9.070398 1.070277 -0.973602 -24.321435 -32.584826 -38.756566 4.382164 16.815960 45.190650 5.067191 -11.224354 15.284462 0.484300 -4.462400 -12.381300 -10.305117 -4.532740 1.455783 12.680191 9.063712 -46.292129 -11.449982 -20.176019 64.965387 2.048173 -11.336456 -16.127313 -0.308300 3.569700 -9.869100 15.421773 -4.593358 65.636221 -0.698821 1.717569 -0.632604 -15.119861 4.059445 -9.694218 -5.039756 -12.766270 16.670031 -4.015593 -13.566061 11.040107 1.641500 -6.029400 -3.219600 -6.016358 -3.318381 5.444185 -73.233229 7.354643 35.333316 27.918596 -47.282329 -9.728037 -0.136420 2.076851 3.522739 10.467640 -6.221890 -1.571500 -7.125000 0.000000 0.000000 -11.632500 21.583400 6.673600 5.201212 8.474018 3.291595 3.052451 29.749165 -65.137173 4.589802 4.568606 -0.102820 0.501956 -0.525655 37.238996 -31.003305 8.222890 -5.092300 7.125000 0.000000 0.000000 -3.484700 -20.270300 -2.065400 
0.340421 16.331632 13.192120 11.743358 36.082421 14.828642 9.077599 1.066361 -0.973237 -24.275143 -32.579907 -38.607975 4.369056 16.794338 45.124016 5.055875 -11.160702 15.267209 0.485500 -4.467900 -12.396800 -10.329669 -4.533108 1.431068 12.858462 9.009826 -46.113188 -11.414391 -20.148325 64.833049 2.031944 -11.282930 -16.069103 -0.303100 3.539900 -9.785800 15.366770 -4.559713 65.603602 -0.700259 1.717520 -0.633777 -15.062106 4.069951 -9.639299 -5.097043 -12.658287 16.471018 -4.033883 -13.457405 11.126693 1.619800 -5.995900 -3.104400 -6.023160 -3.321518 5.424877 -73.253977 7.216197 35.330297 27.941594 -47.290216 -9.736950 -0.141656 2.083373 3.413088 10.491856 -6.152017 -1.563600 -7.125000 0.000000 0.000000 -11.617700 21.645200 6.648100 5.174157 8.441985 3.290334 3.325785 29.682360 -64.750720 4.523919 4.660339 -0.127750 0.470779 -0.544740 37.150983 -31.130690 8.398833 -5.246300 7.125000 0.000000 0.000000 -3.546300 -20.007400 -2.123000 
0.339625 16.337403 13.193911 11.613724 36.054380 14.687615 9.086134 1.062749 -0.976626 -24.213529 -32.559749 -38.463635 4.355128 16.771272 45.052654 5.043490 -11.090795 15.248010 0.486800 -4.473900 -12.413900 -10.355483 -4.533432 1.405653 13.048941 8.975839 -45.940136 -11.375854 -20.120303 64.691253 2.023050 -11.250826 -16.009964 -0.301700 3.531600 -9.762600 15.298863 -4.508505 65.537247 -0.702019 1.723388 -0.630020 -14.990176 4.087730 -9.552830 -5.169444 -12.548671 16.250432 -4.053502 -13.349285 11.211973 1.602700 -5.963700 -2.985900 -6.028320 -3.314598 5.406435 -73.282208 7.052917 35.315647 27.935273 -47.285685 -9.736084 -0.142722 2.091956 3.305965 10.573235 -6.136604 -1.574300 -7.125000 0.000000 0.000000 -11.561200 21.648200 6.613600 5.146234 8.398600 3.292202 3.610417 29.616648 -64.357454 4.441559 4.775957 -0.154139 0.439225 -0.562539 37.078122 -31.250291 8.562703 -5.391700 7.125000 0.000000 0.000000 -3.602100 -19.759900 -2.176500 
0.338828 16.343374 13.196001 11.483252 36.040865 14.512612 9.095996 1.057289 -0.978680 -24.162825 -32.546100 -38.277061 4.338753 16.744663 44.972005 5.031488 -11.022220 15.238080 0.484500 -4.463200 -12.383600 -10.385952 -4.533400 1.375198 13.256999 8.931489 -45.721200 -11.335755 -20.088328 64.541272 2.012911 -11.216797 -15.960918 -0.297700 3.508600 -9.698100 15.231963 -4.469704 65.486875 -0.704376 1.717193 -0.627944 -14.918267 4.100773 -9.470046 -5.249222 -12.428080 16.009314 -4.077990 -13.229737 11.303006 1.583000 -5.927900 -2.853600 -6.034112 -3.309780 5.385877 -73.326432 6.886093 35.261508 27.934264 -47.280281 -9.738480 -0.141565 2.100595 3.282509 10.660111 -6.141890 -1.589800 -7.125000 0.000000 0.000000 -11.499000 21.630700 6.581200 5.111020 8.353757 3.286465 3.933617 29.603765 -63.929978 4.362234 4.900741 -0.183366 0.402901 -0.580450 37.061580 -31.411950 8.718865 -5.543400 7.125000 0.000000 0.000000 -3.685200 -19.513400 -2.247200 
0.338231 16.350240 13.197792 11.314753 36.022759 14.325771 9.105729 1.054250 -0.980237 -24.089486 -32.505240 -38.099997 4.324763 16.719864 44.898673 5.022590 -10.971737 15.210055 0.485200 -4.466600 -12.393100 -10.420737 -4.533459 1.341661 13.507308 8.884939 -45.487439 -11.291179 -20.053003 64.373676 1.999278 -11.170010 -15.897098 -0.298000 3.510200 -9.702600 15.167006 -4.425306 65.422274 -0.705262 1.725895 -0.625731 -14.809888 4.113740 -9.397073 -5.406122 -12.305445 15.817442 -4.075339 -13.114862 11.368002 1.607600 -5.896400 -2.735000 -6.037967 -3.307010 5.369669 -73.414267 6.731874 35.181881 27.932735 -47.280243 -9.742552 -0.142432 2.114929 3.247345 10.789446 -6.114608 -1.606900 -7.125000 0.000000 0.000000 -11.406400 21.637900 6.524200 5.066902 8.307356 3.286857 4.268246 29.605165 -63.462155 4.279169 5.041753 -0.213441 0.364896 -0.596426 37.047209 -31.438418 8.882106 -5.670600 7.125000 0.000000 0.000000 -3.669600 -19.273300 -2.257300 
